<?xml version="1.0" standalone="no"?>
<!DOCTYPE svg PUBLIC "-//W3C//DTD SVG 20010904//EN"
 "http://www.w3.org/TR/2001/REC-SVG-20010904/DTD/svg10.dtd">
<svg version="1.0" xmlns="http://www.w3.org/2000/svg"
 width="512.000000pt" height="512.000000pt" viewBox="0 0 512.000000 512.000000"
 preserveAspectRatio="xMidYMid meet">
<metadata>
Created by potrace 1.11, written by Peter Selinger 2001-2013
</metadata>
<g transform="translate(0.000000,512.000000) scale(0.100000,-0.100000)"
fill="#000000" stroke="none">
<path d="M0 2560 l0 -2560 2560 0 2560 0 0 2560 0 2560 -2560 0 -2560 0 0
-2560z m820 2130 l0 -270 -275 0 -275 0 0 270 0 270 275 0 275 0 0 -270z
m2886 -1324 c63 -29 95 -71 96 -128 1 -34 10 -53 40 -89 21 -26 38 -56 38 -67
0 -12 4 -23 9 -26 9 -6 8 -28 -3 -67 -6 -20 -1 -37 18 -68 14 -22 26 -47 26
-55 0 -8 5 -18 11 -21 6 -4 8 -13 5 -20 -3 -8 -1 -15 4 -17 6 -2 3 -16 -5 -31
-10 -19 -13 -43 -9 -70 3 -23 8 -74 11 -113 4 -70 6 -72 54 -120 52 -51 59
-74 38 -131 -8 -24 -7 -39 5 -68 9 -21 16 -56 16 -80 0 -25 10 -60 24 -87 14
-27 22 -55 19 -70 -3 -13 1 -44 8 -69 13 -43 15 -53 18 -96 0 -12 12 -35 26
-51 18 -22 25 -42 25 -73 0 -31 10 -60 32 -99 37 -63 45 -127 23 -171 -11 -21
-12 -35 -5 -54 6 -15 10 -44 10 -66 0 -22 9 -57 19 -77 26 -50 45 -117 38
-136 -3 -8 0 -20 8 -26 7 -6 11 -20 8 -31 -3 -11 1 -27 10 -37 8 -9 20 -42 26
-72 8 -39 22 -66 47 -93 34 -37 36 -37 76 -27 54 15 80 7 117 -35 25 -29 31
-45 31 -81 0 -79 -43 -141 -109 -157 -13 -3 -53 1 -89 9 -58 13 -69 13 -119
-1 -47 -14 -86 -15 -249 -9 -191 7 -193 7 -218 33 -14 14 -33 46 -43 71 -25
60 -14 91 61 170 55 57 58 63 53 100 -3 25 0 46 9 57 23 31 17 72 -16 105 -16
16 -30 35 -30 42 0 6 -5 17 -11 23 -8 8 -7 17 5 34 25 37 16 98 -18 122 -6 4
-60 7 -121 6 -97 -1 -117 2 -167 24 l-56 25 -48 -24 c-35 -18 -64 -24 -110
-24 -80 0 -98 -15 -91 -77 3 -32 -2 -56 -20 -95 -14 -29 -30 -84 -35 -123 -5
-38 -12 -86 -15 -106 -5 -35 -3 -37 48 -63 29 -14 62 -26 73 -26 12 0 35 -14
53 -30 l32 -29 -16 -46 c-19 -56 -77 -121 -118 -131 -17 -4 -38 -15 -48 -25
-16 -17 -34 -19 -150 -19 -99 0 -138 4 -153 14 -18 13 -26 13 -60 1 -129 -46
-224 25 -224 169 0 37 5 68 11 72 8 4 8 9 1 13 -26 16 53 65 121 75 40 6 51
13 73 45 30 46 48 105 34 109 -6 2 1 12 14 23 22 17 23 23 14 56 -7 25 -6 43
1 60 6 14 9 29 5 34 -3 5 6 23 20 40 29 34 32 45 41 139 4 38 13 72 23 83 10
12 17 38 18 75 1 39 8 68 23 92 18 29 21 46 19 98 -3 44 0 62 8 62 7 0 10 8 7
20 -3 11 2 38 11 60 9 22 16 53 16 68 0 15 7 36 15 46 8 11 15 34 15 52 0 17
7 48 16 69 9 22 13 49 9 65 -4 17 0 40 9 57 8 16 18 47 21 68 4 22 11 45 14
50 4 6 8 23 9 39 1 17 11 39 21 50 28 31 45 98 34 132 -8 23 -5 38 14 76 17
35 24 65 24 109 0 33 6 75 14 92 7 18 18 64 25 102 7 39 18 81 25 95 7 14 16
41 20 60 4 19 12 40 17 47 5 7 7 21 3 33 -5 14 4 35 30 70 20 28 33 50 28 50
-28 1 41 26 87 31 100 11 124 9 176 -15z"/>
<path d="M3542 2745 c-6 -14 -9 -31 -6 -39 3 -7 -12 -44 -32 -81 l-37 -67 28
-55 c32 -65 30 -107 -10 -154 -17 -21 -25 -41 -23 -63 1 -22 -8 -44 -35 -79
-42 -56 -44 -63 -17 -97 27 -35 25 -47 -20 -114 -39 -57 -40 -61 -34 -121 5
-47 3 -69 -11 -94 -9 -18 -15 -34 -13 -36 2 -1 17 -10 33 -19 l30 -16 -37 6
c-21 3 -38 4 -38 0 0 -15 109 -59 160 -63 45 -4 68 0 121 21 36 14 75 26 87
26 61 0 90 39 78 105 -4 21 -2 44 5 57 8 14 12 67 12 142 0 106 -2 120 -19
129 -25 13 -74 65 -74 78 0 6 -8 8 -19 4 -28 -9 -51 5 -51 30 0 37 23 49 59
30 29 -15 32 -15 37 2 3 10 10 30 16 44 10 27 -7 73 -45 123 -12 17 -12 25 -2
50 16 39 2 78 -44 121 -27 26 -31 37 -31 80 0 28 -5 56 -12 63 -19 19 -44 14
-56 -13z"/>
</g>
</svg>
